<svg width="116" height="27" viewBox="0 0 116 27" fill="none" xmlns="http://www.w3.org/2000/svg">
<path d="M6.62398 26.36C4.70398 26.36 3.25198 25.82 2.26798 24.74C1.28398 23.636 0.791977 22.064 0.791977 20.024V18.584H4.53598V20.312C4.53598 21.944 5.21998 22.76 6.58798 22.76C7.25998 22.76 7.76398 22.568 8.09998 22.184C8.45998 21.776 8.63998 21.128 8.63998 20.24C8.63998 19.184 8.39998 18.26 7.91998 17.468C7.43998 16.652 6.55198 15.68 5.25598 14.552C3.62398 13.112 2.48398 11.816 1.83598 10.664C1.18798 9.48802 0.863977 8.16802 0.863977 6.70402C0.863977 4.71202 1.36798 3.17602 2.37598 2.09602C3.38398 0.992021 4.84798 0.440021 6.76798 0.440021C8.66398 0.440021 10.092 0.992021 11.052 2.09602C12.036 3.17602 12.528 4.73602 12.528 6.77602V7.82002H8.78398V6.52402C8.78398 5.66002 8.61598 5.03602 8.27998 4.65202C7.94398 4.24402 7.45198 4.04002 6.80398 4.04002C5.48398 4.04002 4.82398 4.84402 4.82398 6.45202C4.82398 7.36402 5.06398 8.21602 5.54398 9.00802C6.04798 9.80002 6.94798 10.76 8.24398 11.888C9.89998 13.328 11.04 14.636 11.664 15.812C12.288 16.988 12.6 18.368 12.6 19.952C12.6 22.016 12.084 23.6 11.052 24.704C10.044 25.808 8.56798 26.36 6.62398 26.36ZM20.4505 26.36C18.5545 26.36 17.1025 25.82 16.0945 24.74C15.1105 23.66 14.6185 22.136 14.6185 20.168V6.63202C14.6185 4.66402 15.1105 3.14002 16.0945 2.06002C17.1025 0.980021 18.5545 0.440021 20.4505 0.440021C22.3465 0.440021 23.7865 0.980021 24.7705 2.06002C25.7785 3.14002 26.2825 4.66402 26.2825 6.63202V9.29602H22.5385V6.38002C22.5385 4.82002 21.8785 4.04002 20.5585 4.04002C19.2385 4.04002 18.5785 4.82002 18.5785 6.38002V20.456C18.5785 21.992 19.2385 22.76 20.5585 22.76C21.8785 22.76 22.5385 21.992 22.5385 20.456V16.604H26.2825V20.168C26.2825 22.136 25.7785 23.66 24.7705 24.74C23.7865 25.82 22.3465 26.36 20.4505 26.36ZM28.6518 0.800021H34.5198C36.5598 0.800021 38.0478 1.28002 38.9838 2.24002C39.9198 3.17602 40.3878 4.62802 40.3878 6.59602V8.14402C40.3878 10.76 39.5238 12.416 37.7958 13.112V13.184C38.7558 13.472 39.4278 14.06 39.8118 14.948C40.2198 15.836 40.4238 17.024 40.4238 18.512V22.94C40.4238 23.66 40.4478 24.248 40.4958 24.704C40.5438 25.136 40.6638 25.568 40.8558 26H36.8238C36.6798 25.592 36.5838 25.208 36.5358 24.848C36.4878 24.488 36.4638 23.84 36.4638 22.904V18.296C36.4638 17.144 36.2718 16.34 35.8878 15.884C35.5278 15.428 34.8918 15.2 33.9798 15.2H32.6118V26H28.6518V0.800021ZM34.0518 11.6C34.8438 11.6 35.4318 11.396 35.8158 10.988C36.2238 10.58 36.4278 9.89602 36.4278 8.93602V6.99202C36.4278 6.08002 36.2598 5.42002 35.9238 5.01202C35.6118 4.60402 35.1078 4.40002 34.4118 4.40002H32.6118V11.6H34.0518ZM43.1713 0.800021H53.9713V4.40002H47.1313V11.06H52.5673V14.66H47.1313V22.4H53.9713V26H43.1713V0.800021ZM59.3094 0.800021H64.6734L68.7774 26H64.8174L64.0974 20.996V21.068H59.5974L58.8774 26H55.2054L59.3094 0.800021ZM63.6294 17.648L61.8654 5.19202H61.7934L60.0654 17.648H63.6294ZM70.6986 0.800021H76.3506L78.8706 18.836H78.9426L81.4626 0.800021H87.1146V26H83.3706V6.92002H83.2986L80.4186 26H77.1066L74.2266 6.92002H74.1546V26H70.6986V0.800021Z" fill="#DE0611"/>
<path d="M93.1657 4.40002H89.0257V0.800021H101.266V4.40002H97.1257V26H93.1657V4.40002ZM102.28 0.800021H106.276L108.868 20.348H108.94L111.532 0.800021H115.168L111.352 26H106.096L102.28 0.800021Z" fill="#E5E5E5"/>
</svg>
